<svg xmlns="http://www.w3.org/2000/svg" width="25.023" height="35.933"><defs><style>.a{fill:#d9d9d9}</style><clipPath id="a"><path class="a" d="M16536.924-6342.876h25.023v-35.933h-25.023z" transform="translate(-16536.924 6378.809)"/></clipPath></defs><g clip-path="url(#a)"><path class="a" d="M12.52 23.273a5.355 5.355 0 0 0 5.353-5.37l.019-12.533A5.368 5.368 0 0 0 12.522 0a5.369 5.369 0 0 0-5.37 5.37v12.532a5.372 5.372 0 0 0 5.37 5.37m-1.792 7.025v5.633h3.58v-5.572a12.657 12.657 0 0 1-1.78.078 12.625 12.625 0 0 1-1.8-.139M6.165 24.29a8.479 8.479 0 0 1-2.59-6.26H.001a12.125 12.125 0 0 0 3.664 8.789l.026-.024-.026-.024z"/><path class="a" d="M21.444 18.028a9.183 9.183 0 0 1-8.922 8.887 8.947 8.947 0 0 1-6.331-2.658l-.03.03-2.5 2.484.026.022a12.485 12.485 0 0 0 7.038 3.5 12.65 12.65 0 0 0 1.8.139 12.643 12.643 0 0 0 1.779-.078 12.47 12.47 0 0 0 10.717-12.326z"/></g></svg>