<svg xmlns="http://www.w3.org/2000/svg" width="145.623" height="54.728"><g data-name="Google Icon"><g stroke-width="2.646"><path d="M27.417 22.709a9.629 9.629 0 0 0-.377-4.02c-.427-1.382-1.156-2.538-2.186-2.663a23.478 23.478 0 0 0-4.064-.091c-1.558.072-3.26.229-4.931.418s-3.31.408-4.743.606-2.657.374-3.5.474a.344.344 0 0 0 .066.134.478.478 0 0 0 .122.105 1.054 1.054 0 0 0 .179.086c.069.027.148.052.236.077.038 0 .333-.041.8-.1s1.109-.136 1.837-.208 1.545-.14 2.365-.18 1.643-.053 2.384-.015q-1.7.245-2.974.451t-2.121.366c-.562.107-.978.2-1.245.272s-.382.13-.345.168c.314.4.663.829 1.041 1.253a15.854 15.854 0 0 0 1.22 1.234c.433.389.972.647 1.371 1.046 1.323 1.323-1.079 3.894.733 3.894.98 0-.559-3.559.76-3.206.044 0 .179.01.389.029l.838.077a13.544 13.544 0 0 1 2.63.252c3.615.969-.462 3.98 1.6 3.98 1.46 0-.943-3.909 1.655-3.681 1.1.1 2.175.185 3.092.247a14.678 14.678 0 0 1-1.756 1.943 14.425 14.425 0 0 1-2.27 1.726 12.119 12.119 0 0 1-2.694 1.236 10.119 10.119 0 0 1-3.028.473 9.682 9.682 0 0 1-3.74-.748 9.907 9.907 0 0 1-2.925-1.884 8.689 8.689 0 0 1-1.879-2.477 5.253 5.253 0 0 1-.6-2.529 11.187 11.187 0 0 1 1.278-4.693c.775-1.505 1.945-3.84 3.425-4.694 3.145-1.816 2.479 1.281 3.333 1.281 1.066 0-.537-2.1 1.13-2.543 1.7-.456 3.661.084 5.659 1.1a2.093 2.093 0 0 0 .581-.369 3.694 3.694 0 0 0 .531-.585 7.466 7.466 0 0 0 .88-1.628 11.942 11.942 0 0 0 .588-1.92 9.866 9.866 0 0 0 .235-1.83c.038-1.608-1.256-2.67-3.229-3.057a13.362 13.362 0 0 0-7.3.99 17.4 17.4 0 0 0-7.45 5.8 19.987 19.987 0 0 0-3.681 11.388 19.322 19.322 0 0 0 1.01 7.148 13.609 13.609 0 0 0 3.073 4.995 19.075 19.075 0 0 0 4.411 2.931c4.589 2.649.029 10.335 2.481 10.335 2.641 0-.357-7.7 2.543-9.378 5.211-3.009-.51 13.45 2.743 13.45 2.673 0-1.706-12.011 2.683-14.545 4.012-2.316-.693 6.109 2.251 6.109s-.076-5.708 1.884-9.1c1.693-2.932 3.4-6.037 3-9.931z" fill="#4285f4" stroke="#00f"/><path d="M28.039 30.297c1.319-.766 4.149-1.3 7.676-1.628a115.544 115.544 0 0 1 11.86-.389 103.937 103.937 0 0 1 11.162.695c3.062.395 5.195.945 5.584 1.623.013.025 0 .038-.018.042a.252.252 0 0 1-.089 0c-.035-.006-.071-.016-.1-.024l-.046-.014.163.2.163.2.163.2.163.2s-.744-.145-1.992-.343-3-.451-5.012-.668-4.289-.4-6.585-.451a42.832 42.832 0 0 0-6.713.307 50.374 50.374 0 0 1 7.09-.062c2.451.13 4.9.379 7.081.659s4.089.589 5.46.838a18.7 18.7 0 0 1 2.228.475 4.173 4.173 0 0 1 .365.616 1.907 1.907 0 0 1 .116.3.544.544 0 0 1 .022.237l-.129.47c-.028.1-.059.222-.09.344l-.094.375-.089.362-.075.306-.052.21-.019.078h-.165l-.055.005-.055.008-.054.012-.054.015-.054.018c-5.763 1.544-3.309 10.133-4.9 10.133-2.077 0 1.825-8.869-5.789-10.909-4.547-1.218-7.087.159-10.309.159-9.941 0-2.356 7.689-4.579 7.689-2.469 0 .356-6.23-3.9-6.23a13 13 0 0 0-5.226.878 2.528 2.528 0 0 1-2.168-.137 3.049 3.049 0 0 1-1.23-1.672 6.528 6.528 0 0 1-.3-2.5 7.693 7.693 0 0 1 .631-2.624z" fill="#34a853" stroke="green"/><path d="M27.285 14.266c0 4.372 3.769 12.965 10.352 13.066a7.569 7.569 0 0 0 3.971-1.04c1.954-1.128.939 1.587 1.648 1.587.94 0 .022-2.5 1.4-4.53a14.758 14.758 0 0 0 1.95-4.356 19.989 19.989 0 0 0 .688-5.28 12.29 12.29 0 0 0-1.226-5.636 9.025 9.025 0 0 0-2.889-3.347 8.469 8.469 0 0 0-3.369-1.405 4.788 4.788 0 0 0-2.667.187 1.116 1.116 0 0 0-.278.174.966.966 0 0 0-.174.2 1.069 1.069 0 0 0-.1.188c-.024.057-.039.108-.052.145a.161.161 0 0 0 .048.09 1.007 1.007 0 0 0 .109.1c.041.035.083.068.119.1s.064.049.076.062a.124.124 0 0 1-.02.14.477.477 0 0 1-.143.111 1.272 1.272 0 0 1-.162.074 2.154 2.154 0 0 1-.077.027l.05.013.05.013.05.013.05.013a1.908 1.908 0 0 1 .715.068c1.858.5-.255 6.032.732 6.032 1.165 0-.011-5.958.84-5.328a4.912 4.912 0 0 1 1.572 2.089 10.8 10.8 0 0 1 .715 4.224 15.124 15.124 0 0 1-.447 3.777 10.078 10.078 0 0 1-1.055 2.618 5.694 5.694 0 0 1-1.234 1.506 1.522 1.522 0 0 1-.984.441 1.878 1.878 0 0 1-.775-.408 5.464 5.464 0 0 1-1.166-1.275 8.226 8.226 0 0 1-1.062-2.33 12.822 12.822 0 0 1-.464-3.574 12.223 12.223 0 0 1 .223-2.367 11.012 11.012 0 0 1 .543-1.873c.55-1.416-.237 1.23.54 1.23 1.063 0-.311-.966.141-2.65.169-.743.438-.81.614-1.124a.562.562 0 0 0 .326-.181.822.822 0 0 0 .17-.327 1.366 1.366 0 0 0 .048-.375 1.239 1.239 0 0 0-.042-.323 2.246 2.246 0 0 0-.581-.935 5.868 5.868 0 0 0-1.241-1.006 4.806 4.806 0 0 0-1.6-.638 2.754 2.754 0 0 0-1.655.167c-.553.251-4.271 4.824-4.271 11.859z" fill="#ea4335" stroke="#a00"/><path d="M47.587 14.266a13.176 13.176 0 0 0 .692 3.872 17.945 17.945 0 0 0 2.016 4.263 12.478 12.478 0 0 0 3.251 3.461 7.832 7.832 0 0 0 4.395 1.469 7.482 7.482 0 0 0 3.965-1.039 9.581 9.581 0 0 0 3.04-2.943c1.705-2.52-1.072 5.05 1.122 5.05 1.677 0-.429-4.713.828-9.406a20.46 20.46 0 0 0 .688-5.28 12.29 12.29 0 0 0-1.226-5.636 9.024 9.024 0 0 0-2.889-3.346A8.469 8.469 0 0 0 60.1 3.326a4.788 4.788 0 0 0-2.667.187 1.116 1.116 0 0 0-.278.174.968.968 0 0 0-.174.2 1.067 1.067 0 0 0-.1.188c-.024.057-.039.108-.052.145a.161.161 0 0 0 .048.09 1.01 1.01 0 0 0 .109.1c.041.035.083.068.119.1s.064.049.076.062a.124.124 0 0 1-.02.14.477.477 0 0 1-.143.111 1.272 1.272 0 0 1-.162.074 2.154 2.154 0 0 1-.077.027l.05.013.05.013.05.013.05.013a2.979 2.979 0 0 1 .715.068 3.966 3.966 0 0 1 1.572.7c1.445 1.072-.291 6.711.84 6.711 1 0 .01-6.325.732-4.622a10.8 10.8 0 0 1 .715 4.224 15.124 15.124 0 0 1-.447 3.777 10.078 10.078 0 0 1-1.055 2.618 5.694 5.694 0 0 1-1.234 1.506 1.522 1.522 0 0 1-.984.441 1.877 1.877 0 0 1-.775-.408 5.462 5.462 0 0 1-1.166-1.275 8.226 8.226 0 0 1-1.062-2.33 12.823 12.823 0 0 1-.464-3.574 12.223 12.223 0 0 1 .223-2.367 11.01 11.01 0 0 1 .543-1.873 12.853 12.853 0 0 1 .675-1.449c.226-.42.443-.781.619-1.1a.562.562 0 0 0 .326-.181.822.822 0 0 0 .17-.327 1.366 1.366 0 0 0 .048-.375 1.24 1.24 0 0 0-.042-.323 2.246 2.246 0 0 0-.581-.935 5.869 5.869 0 0 0-1.241-1.006 4.806 4.806 0 0 0-1.6-.638 2.754 2.754 0 0 0-1.655.167 3.855 3.855 0 0 0-.9.97 15.4 15.4 0 0 0-1.435 2.417 19.1 19.1 0 0 0-1.339 3.688 19.617 19.617 0 0 0-.59 4.786h0z" fill="#fbbc05" stroke="#ff0"/><path d="M94.158 22.709a9.628 9.628 0 0 0-.377-4.02c-.427-1.382-1.156-2.538-2.186-2.663a42.171 42.171 0 0 0-9 .327c-3.342.377-6.558.879-8.241 1.08.291.5.162 2.256.047 3.881s-.213 3.124.141 3.124c.583 0 .556-1.688.449-3.357a12.906 12.906 0 0 1-.034-3.246c.075 0 1.181-.163 2.638-.308a34.16 34.16 0 0 1 4.749-.195c-2.261.327-3.97.6-5.094.817s-1.665.364-1.589.44a7.156 7.156 0 0 1 1.621 4.338c.05 1.082-.064 1.73.641 1.73.583 0 .065-.461.018-.923s.378-.923 2.846-.923c3.015 0 3.722 1.123 3.8 2.247s-.461 2.247.053 2.247c.492 0 .683-.993 1.448-1.938s2.105-1.842 4.9-1.651a14.758 14.758 0 0 1-4.026 3.668 10.985 10.985 0 0 1-5.722 1.709 9.79 9.79 0 0 1-6.665-2.632 6.927 6.927 0 0 1-2.481-5.006 11.992 11.992 0 0 1 4.491-8.637 9.2 9.2 0 0 1 10.333-.911 2.764 2.764 0 0 0 1.111-.954 7.466 7.466 0 0 0 .88-1.628 11.939 11.939 0 0 0 .588-1.92 9.866 9.866 0 0 0 .235-1.83c.075-3.216-5.176-4.246-10.528-2.067s-10.8 7.569-11.131 17.193c-.176 5.5 1.479 9.538 4.083 12.142 4.871 4.871.884 17.7 4.411 17.7 3.734 0-3.178-13.81 5.024-13.81 12.157 0 6.832 9.215 9.561 9.215 1.936 0-.656-9.583 3-23.236z" fill="#4285f4" stroke="#00f"/><path d="M113.434 32.855l.452-.1-.653-.854s.3.151.251.05c-1.055-1.859-6.784-2.915-11.96-2.462.352-3.568 1.256-11.659 1.709-19.8.553-9.2-5.377-8.643-7.638-8.091-.5.151-.754.6-.7.8.754 4.271.6 19.347.553 28.543l-.3.151-.3.151a7.465 7.465 0 0 0-.314 5.088 2.524 2.524 0 0 0 3.379 1.847c9.653-2.587 2.367 13.347 7.18 13.347 4.266 0-6.543-17.472 8.047-15.407l.226.1.226.1s.452-1.658.6-2.06c.1-.3-.754-1.407-.754-1.407z" fill="#34a853" stroke="green"/><path d="M122.541 27.985c.2-1.256.5-3.317.754-5.98 4.267-1.024 2.539 3.52 3.618 3.52 1.043 0-1.334-4.928 1.96-4.928.7-.251 2.513-1.106 2.513-1.106l.176-.3.176-.3.9-.226.9-.226-.025-.251-.025-.251.829-.528.829-.528-.327-.025-.327-.025.779-.427.779-.427.2-1.206a3.844 3.844 0 0 0 .4-1.055 106.92 106.92 0 0 0-12.613.8c.1-1.206.2-2.412.251-3.719 0-.4.05-.8.05-1.206 7.43-1.182 4.866 3.691 6.464 3.691 1.209 0-1.176-5.248 3.336-5.248.3-.1 2.312-.955 2.312-.955l.05-.6 1.658-.854-1.005-.05s1.005-.7 1.156-.854a5.418 5.418 0 0 1 1.558-1.106 6.3 6.3 0 0 1 .05-1.307c-3.266-.05-14.774-.3-20.1.4a9.424 9.424 0 0 0-3.97.6c.9 3.216.653 18.342.653 26.935q-.339.113-.6.226a3.784 3.784 0 0 0-.452.226c-1.256.653-1.168 2.626-.572 4.341s1.7 3.172 2.481 2.8c10-4.875 5.576 15.571 7.512 15.571 4.214 0-2.452-18.289 6.716-21.061 6.018-1.82 1.921 6.739 4.916 6.739 2.21 0-1.89-8.536 2.113-8.536.653-.251.9-.955 1.759-1.608a10.229 10.229 0 0 1 2.211-1.206l-1.407-.151 1.91-.9.251-.6s.955-.9.955-1.256c-5.779-1.106-14.975.955-21.759 3.166z" fill="#ea4335" stroke="#a00"/></g><g stroke="#f9f9f9" stroke-width=".529"><path d="M27.279 22.799a9.56 9.56 0 0 0-.374-3.991c-.424-1.372-1.147-2.519-2.17-2.644a23.31 23.31 0 0 0-4.034-.09c-1.546.072-3.236.228-4.895.415s-3.286.405-4.708.6-2.638.371-3.473.471a.341.341 0 0 0 .065.133.476.476 0 0 0 .122.1 1.049 1.049 0 0 0 .178.086c.069.027.147.051.234.076.037 0 .33-.041.8-.1s1.1-.135 1.824-.207 1.534-.139 2.348-.178 1.631-.052 2.366-.015q-1.684.243-2.952.447t-2.105.363c-.558.106-.971.2-1.235.27s-.38.129-.342.167c.312.4.658.823 1.034 1.244a15.736 15.736 0 0 0 1.211 1.225c.43.387.965.642 1.361 1.038 1.313 1.313-1.071 3.865.728 3.865.972 0-.555-3.534.755-3.183.044 0 .178.01.386.028s.491.045.831.077a13.444 13.444 0 0 1 2.611.25c3.588.962-.458 3.952 1.586 3.952 1.449 0-.936-3.881 1.643-3.655 1.093.1 2.159.183 3.069.246a14.573 14.573 0 0 1-1.744 1.929 14.32 14.32 0 0 1-2.253 1.713 12.031 12.031 0 0 1-2.674 1.227 10.044 10.044 0 0 1-3.006.469 9.61 9.61 0 0 1-3.712-.743 9.834 9.834 0 0 1-2.9-1.87 8.626 8.626 0 0 1-1.865-2.459 5.216 5.216 0 0 1-.6-2.511 11.107 11.107 0 0 1 1.268-4.659c.769-1.494 1.931-3.812 3.4-4.661 3.122-1.8 2.461 1.271 3.309 1.271 1.058 0-.533-2.081 1.121-2.524 1.69-.453 3.635.083 5.617 1.094a2.079 2.079 0 0 0 .576-.366 3.669 3.669 0 0 0 .527-.581 7.411 7.411 0 0 0 .874-1.616 11.854 11.854 0 0 0 .584-1.906 9.8 9.8 0 0 0 .233-1.817c.037-1.6-1.247-2.65-3.205-3.035a13.263 13.263 0 0 0-7.246.983 17.274 17.274 0 0 0-7.4 5.763 19.844 19.844 0 0 0-3.654 11.305 19.185 19.185 0 0 0 1 7.1 13.511 13.511 0 0 0 3.051 4.958 18.937 18.937 0 0 0 4.379 2.91c4.555 2.63.029 10.26 2.462 10.26 2.622 0-.354-7.648 2.524-9.31 5.173-2.987-.507 13.352 2.723 13.352 2.654 0-1.694-11.924 2.663-14.44 3.983-2.3-.688 6.065 2.234 6.065s-.075-5.667 1.87-9.037c1.681-2.911 3.38-5.993 2.981-9.859z" fill="#4285f4"/><path d="M27.896 30.337c1.309-.761 4.119-1.291 7.62-1.616a114.7 114.7 0 0 1 11.773-.386 103.162 103.162 0 0 1 11.08.69c3.04.392 5.157.938 5.543 1.611.012.025 0 .037-.018.042a.252.252 0 0 1-.088 0c-.034-.006-.07-.016-.1-.023l-.046-.014.162.2.162.2.162.2.162.2s-.739-.143-1.977-.341-2.977-.448-4.975-.663-4.257-.394-6.537-.448a42.516 42.516 0 0 0-6.663.3 49.993 49.993 0 0 1 7.038-.062c2.433.129 4.865.376 7.029.654s4.059.585 5.42.832a18.578 18.578 0 0 1 2.212.472 4.118 4.118 0 0 1 .361.612 1.894 1.894 0 0 1 .115.3.541.541 0 0 1 .022.235c-.025.087-.072.259-.128.467-.028.1-.058.22-.089.341l-.093.372-.088.36-.075.3-.052.209-.019.077h-.164l-.054.005-.054.008-.054.012-.054.015-.054.018c-5.72 1.533-3.285 10.06-4.86 10.06-2.062 0 1.812-8.8-5.746-10.83-4.514-1.21-7.035.158-10.233.158-9.868 0-2.338 7.633-4.545 7.633-2.451 0 .353-6.185-3.867-6.185a12.908 12.908 0 0 0-5.188.871 2.51 2.51 0 0 1-2.152-.136 3.027 3.027 0 0 1-1.221-1.66 6.482 6.482 0 0 1-.3-2.484 7.639 7.639 0 0 1 .626-2.605z" fill="#34a853"/><path d="M27.149 14.426c0 4.34 3.741 12.871 10.276 12.971a7.514 7.514 0 0 0 3.938-1.032c1.94-1.12.932 1.575 1.636 1.575.933 0 .022-2.482 1.385-4.5a14.652 14.652 0 0 0 1.936-4.325 19.846 19.846 0 0 0 .683-5.241 12.2 12.2 0 0 0-1.217-5.6 8.959 8.959 0 0 0-2.868-3.322 8.406 8.406 0 0 0-3.345-1.4 4.752 4.752 0 0 0-2.648.186 1.109 1.109 0 0 0-.276.172.96.96 0 0 0-.173.2 1.06 1.06 0 0 0-.1.186c-.023.057-.039.107-.051.144a.16.16 0 0 0 .048.09.994.994 0 0 0 .108.1c.041.034.083.067.118.094s.063.049.076.062a.123.123 0 0 1-.02.139.473.473 0 0 1-.142.111 1.27 1.27 0 0 1-.161.073 1.817 1.817 0 0 1-.076.027l.05.012.05.013.05.012.05.013a1.893 1.893 0 0 1 .709.068c1.844.494-.253 5.988.727 5.988 1.157 0-.011-5.915.833-5.289a4.877 4.877 0 0 1 1.56 2.074 10.722 10.722 0 0 1 .709 4.193 15.016 15.016 0 0 1-.444 3.749 10.006 10.006 0 0 1-1.047 2.6 5.653 5.653 0 0 1-1.224 1.5 1.51 1.51 0 0 1-.977.438 1.863 1.863 0 0 1-.769-.405 5.423 5.423 0 0 1-1.157-1.266 8.167 8.167 0 0 1-1.055-2.314 12.731 12.731 0 0 1-.461-3.548 12.136 12.136 0 0 1 .221-2.35 10.932 10.932 0 0 1 .539-1.859c.546-1.406-.235 1.221.536 1.221 1.055 0-.308-.959.14-2.631.168-.738.435-.8.609-1.116a.558.558 0 0 0 .323-.18.816.816 0 0 0 .169-.325 1.356 1.356 0 0 0 .048-.372 1.231 1.231 0 0 0-.041-.32 2.23 2.23 0 0 0-.577-.928 5.827 5.827 0 0 0-1.232-1 4.771 4.771 0 0 0-1.587-.634 2.734 2.734 0 0 0-1.643.166c-.549.249-4.24 4.789-4.24 11.774z" fill="#ea4335"/><path d="M47.302 14.426a13.082 13.082 0 0 0 .687 3.844 17.816 17.816 0 0 0 2 4.232 12.388 12.388 0 0 0 3.226 3.437 7.774 7.774 0 0 0 4.363 1.458 7.427 7.427 0 0 0 3.938-1.032 9.51 9.51 0 0 0 3.021-2.922c1.693-2.5-1.064 5.013 1.114 5.013 1.665 0-.426-4.679.822-9.338a20.314 20.314 0 0 0 .683-5.241 12.2 12.2 0 0 0-1.217-5.6 8.959 8.959 0 0 0-2.871-3.321 8.407 8.407 0 0 0-3.345-1.4 4.753 4.753 0 0 0-2.648.186 1.109 1.109 0 0 0-.276.172.961.961 0 0 0-.173.2 1.06 1.06 0 0 0-.1.186c-.023.057-.039.107-.051.144a.16.16 0 0 0 .048.09 1 1 0 0 0 .108.1c.041.034.083.067.118.094s.063.049.076.062a.124.124 0 0 1-.02.139.473.473 0 0 1-.142.111 1.269 1.269 0 0 1-.161.073 1.817 1.817 0 0 1-.076.027l.05.012.05.013.05.013.05.012a2.958 2.958 0 0 1 .709.068 3.937 3.937 0 0 1 1.56.7c1.435 1.064-.289 6.662.833 6.662.994 0 .01-6.279.727-4.588a10.722 10.722 0 0 1 .713 4.194 15.016 15.016 0 0 1-.443 3.749 10.006 10.006 0 0 1-1.047 2.6 5.653 5.653 0 0 1-1.224 1.5 1.51 1.51 0 0 1-.977.438 1.863 1.863 0 0 1-.769-.405 5.423 5.423 0 0 1-1.157-1.266 8.167 8.167 0 0 1-1.055-2.314 12.731 12.731 0 0 1-.461-3.548 12.136 12.136 0 0 1 .221-2.35 10.932 10.932 0 0 1 .539-1.859 12.759 12.759 0 0 1 .67-1.438c.224-.417.44-.776.614-1.087a.558.558 0 0 0 .323-.18.816.816 0 0 0 .169-.325 1.356 1.356 0 0 0 .048-.372 1.231 1.231 0 0 0-.041-.32 2.23 2.23 0 0 0-.577-.928 5.826 5.826 0 0 0-1.232-1 4.771 4.771 0 0 0-1.587-.634 2.734 2.734 0 0 0-1.643.166 3.828 3.828 0 0 0-.894.963 15.287 15.287 0 0 0-1.432 2.4 18.962 18.962 0 0 0-1.329 3.661 19.477 19.477 0 0 0-.585 4.751h0z" fill="#fbbc05"/><path d="M93.531 22.799a9.56 9.56 0 0 0-.374-3.991c-.424-1.372-1.147-2.519-2.17-2.644a41.863 41.863 0 0 0-8.929.324c-3.317.374-6.51.873-8.181 1.073.289.5.16 2.24.047 3.853s-.211 3.1.14 3.1c.578 0 .552-1.676.446-3.333a12.815 12.815 0 0 1-.034-3.222c.075 0 1.172-.162 2.619-.306a33.9 33.9 0 0 1 4.714-.193c-2.245.324-3.941.6-5.057.811s-1.652.362-1.578.437a7.1 7.1 0 0 1 1.609 4.306c.049 1.074-.064 1.717.636 1.717.578 0 .064-.458.018-.916s.375-.916 2.826-.916c2.993 0 3.695 1.115 3.776 2.23s-.458 2.23.053 2.23c.489 0 .678-.986 1.437-1.924s2.09-1.829 4.861-1.639a14.65 14.65 0 0 1-4 3.642 10.9 10.9 0 0 1-5.681 1.7 9.717 9.717 0 0 1-6.616-2.613 6.877 6.877 0 0 1-2.463-4.97 11.906 11.906 0 0 1 4.458-8.575 9.133 9.133 0 0 1 10.257-.9 2.743 2.743 0 0 0 1.1-.947 7.412 7.412 0 0 0 .874-1.616 11.854 11.854 0 0 0 .584-1.906 9.8 9.8 0 0 0 .233-1.817c.075-3.193-5.138-4.216-10.451-2.052s-10.72 7.512-11.043 17.066c-.175 5.463 1.468 9.469 4.053 12.054 4.836 4.836.877 17.57 4.379 17.57 3.706 0-3.155-13.71 4.987-13.71 12.068 0 6.782 9.149 9.49 9.149 1.921 0-.651-9.514 2.981-23.068z" fill="#4285f4"/><path d="M112.664 32.881l.449-.1-.648-.848s.3.15.249.05c-1.048-1.846-6.734-2.894-11.872-2.445.349-3.542 1.247-11.574 1.7-19.656.549-9.13-5.338-8.581-7.582-8.032-.5.15-.748.6-.7.8.748 4.241.6 19.207.549 28.337l-.3.15-.3.15a7.411 7.411 0 0 0-.312 5.051 2.506 2.506 0 0 0 3.353 1.834c9.583-2.568 2.35 13.251 7.127 13.251 4.234 0-6.5-17.346 7.988-15.3l.224.1.224.1s.449-1.646.6-2.045c.1-.3-.748-1.4-.748-1.4z" fill="#34a853"/><path d="M121.705 28.042c.2-1.247.5-3.293.748-5.937 4.236-1.017 2.521 3.495 3.592 3.495 1.035 0-1.325-4.892 1.945-4.892.7-.249 2.494-1.1 2.494-1.1l.175-.3.175-.3.9-.224.9-.224-.025-.249-.025-.249.823-.524.823-.524-.324-.025-.324-.025.773-.424.773-.424.2-1.2a3.816 3.816 0 0 0 .4-1.048 106.122 106.122 0 0 0-12.521.8c.1-1.2.2-2.395.249-3.692 0-.4.05-.8.05-1.2 7.376-1.173 4.831 3.664 6.416 3.664 1.2 0-1.168-5.211 3.311-5.211.3-.1 2.295-.948 2.295-.948l.05-.6 1.646-.848-1-.05s1-.7 1.147-.848a5.379 5.379 0 0 1 1.546-1.1 6.257 6.257 0 0 1 .05-1.3c-3.242-.05-14.666-.3-19.954.4a9.354 9.354 0 0 0-3.941.6c.9 3.193.648 18.209.648 26.74q-.337.112-.6.224a3.756 3.756 0 0 0-.449.225c-1.247.649-1.16 2.607-.567 4.309s1.69 3.149 2.463 2.775c9.925-4.839 5.536 15.459 7.457 15.459 4.183 0-2.434-18.157 6.667-20.909 5.974-1.806 1.907 6.69 4.88 6.69 2.194 0-1.876-8.474 2.1-8.474.648-.249.9-.948 1.746-1.6a10.153 10.153 0 0 1 2.195-1.2l-1.4-.15 1.9-.9.249-.6s.948-.9.948-1.247c-5.737-1.1-14.865.948-21.6 3.143z" fill="#ea4335"/></g><path d="M27.002 22.84a9.629 9.629 0 0 0-.377-4.02c-.427-1.382-1.156-2.538-2.186-2.663a23.479 23.479 0 0 0-4.064-.091c-1.558.072-3.26.229-4.931.418s-3.31.408-4.743.606-2.657.374-3.5.474a.344.344 0 0 0 .066.133.479.479 0 0 0 .122.105 1.054 1.054 0 0 0 .179.086c.069.027.148.052.236.077.038 0 .333-.041.8-.1s1.109-.136 1.837-.208 1.545-.14 2.365-.18 1.643-.053 2.384-.015q-1.7.245-2.974.451t-2.121.366c-.562.107-.978.2-1.245.272s-.382.13-.345.168c.314.4.663.829 1.041 1.253a15.856 15.856 0 0 0 1.22 1.234c.433.389.972.647 1.371 1.046 1.323 1.323-1.079 3.894.733 3.894.98 0-.559-3.559.76-3.206.044 0 .179.01.389.029l.838.077a13.545 13.545 0 0 1 2.63.252c3.615.969-.462 3.98 1.6 3.98 1.46 0-.943-3.909 1.655-3.681 1.1.1 2.175.185 3.092.247a14.678 14.678 0 0 1-1.756 1.943 14.425 14.425 0 0 1-2.27 1.726 12.118 12.118 0 0 1-2.692 1.234 10.119 10.119 0 0 1-3.028.473 9.682 9.682 0 0 1-3.74-.748 9.907 9.907 0 0 1-2.925-1.884 8.688 8.688 0 0 1-1.879-2.477 5.253 5.253 0 0 1-.6-2.529 11.187 11.187 0 0 1 1.277-4.693c.775-1.505 1.945-3.84 3.425-4.694 3.145-1.816 2.479 1.281 3.333 1.281 1.066 0-.537-2.1 1.13-2.543 1.7-.456 3.661.084 5.659 1.1a2.093 2.093 0 0 0 .581-.369 3.7 3.7 0 0 0 .531-.585 7.465 7.465 0 0 0 .88-1.628 11.941 11.941 0 0 0 .588-1.92 9.867 9.867 0 0 0 .235-1.83c.038-1.608-1.256-2.67-3.229-3.057a13.362 13.362 0 0 0-7.3.99 17.4 17.4 0 0 0-7.45 5.8A19.987 19.987 0 0 0 .923 20.822a19.323 19.323 0 0 0 1.01 7.148 13.609 13.609 0 0 0 3.073 4.995 19.075 19.075 0 0 0 4.411 2.931c4.589 2.649.029 10.335 2.481 10.335 2.641 0-.357-7.7 2.543-9.378 5.211-3.009-.51 13.45 2.743 13.45 2.674 0-1.706-12.011 2.683-14.545 4.012-2.316-.693 6.109 2.251 6.109s-.076-5.708 1.884-9.1c1.693-2.932 3.4-6.037 3-9.931z" fill="#4285f4"/><path d="M27.625 30.428c1.319-.766 4.149-1.3 7.676-1.628a115.544 115.544 0 0 1 11.86-.389 103.925 103.925 0 0 1 11.162.695c3.062.395 5.195.945 5.584 1.623.013.025 0 .038-.018.042a.253.253 0 0 1-.089 0c-.035-.006-.071-.016-.1-.024l-.046-.014.163.2.163.2.163.2.163.2s-.744-.144-1.992-.343-3-.451-5.012-.668-4.289-.4-6.585-.451a42.83 42.83 0 0 0-6.713.307 50.373 50.373 0 0 1 7.09-.062c2.451.13 4.9.379 7.081.659s4.089.589 5.46.838a18.706 18.706 0 0 1 2.228.475 4.173 4.173 0 0 1 .365.616 1.906 1.906 0 0 1 .116.3.544.544 0 0 1 .022.237l-.129.47c-.028.1-.059.222-.09.344l-.094.375-.089.362-.075.306-.052.21-.019.078h-.165l-.055.005-.055.008-.054.012-.054.015-.054.018c-5.763 1.544-3.309 10.133-4.9 10.133-2.077 0 1.825-8.869-5.789-10.909-4.547-1.218-7.087.159-10.309.159-9.941 0-2.356 7.689-4.579 7.689-2.469 0 .356-6.23-3.9-6.23a13 13 0 0 0-5.226.878 2.529 2.529 0 0 1-2.168-.137 3.049 3.049 0 0 1-1.23-1.672 6.528 6.528 0 0 1-.3-2.5 7.693 7.693 0 0 1 .631-2.624z" fill="#34a853"/><path d="M26.871 14.397c0 4.372 3.769 12.965 10.352 13.066a7.569 7.569 0 0 0 3.967-1.04c1.954-1.128.939 1.587 1.648 1.587.94 0 .022-2.5 1.4-4.53a14.758 14.758 0 0 0 1.95-4.356 19.989 19.989 0 0 0 .688-5.28 12.29 12.29 0 0 0-1.226-5.636 9.024 9.024 0 0 0-2.889-3.346 8.469 8.469 0 0 0-3.369-1.406 4.788 4.788 0 0 0-2.667.187 1.116 1.116 0 0 0-.278.174.967.967 0 0 0-.174.2 1.067 1.067 0 0 0-.1.188c-.024.057-.039.108-.052.145a.161.161 0 0 0 .048.09 1.006 1.006 0 0 0 .109.1c.041.035.083.068.119.1s.064.049.076.062a.124.124 0 0 1-.02.14.477.477 0 0 1-.143.111 1.276 1.276 0 0 1-.162.074 2.154 2.154 0 0 1-.077.027l.05.013.05.013.05.013.05.013a1.908 1.908 0 0 1 .715.068c1.858.5-.255 6.032.732 6.032 1.165 0-.011-5.959.84-5.328a4.912 4.912 0 0 1 1.572 2.089 10.8 10.8 0 0 1 .715 4.224 15.124 15.124 0 0 1-.447 3.777 10.079 10.079 0 0 1-1.055 2.618 5.694 5.694 0 0 1-1.234 1.506 1.522 1.522 0 0 1-.984.441 1.877 1.877 0 0 1-.775-.408 5.463 5.463 0 0 1-1.166-1.275 8.226 8.226 0 0 1-1.062-2.33 12.823 12.823 0 0 1-.464-3.574 12.223 12.223 0 0 1 .225-2.369 11.011 11.011 0 0 1 .543-1.873c.55-1.416-.237 1.23.54 1.23 1.063 0-.311-.966.141-2.65.169-.743.438-.81.614-1.124a.562.562 0 0 0 .326-.181.822.822 0 0 0 .17-.327 1.366 1.366 0 0 0 .048-.375 1.24 1.24 0 0 0-.042-.323 2.246 2.246 0 0 0-.581-.935 5.87 5.87 0 0 0-1.241-1.006 4.806 4.806 0 0 0-1.6-.638 2.754 2.754 0 0 0-1.655.167c-.553.251-4.271 4.824-4.271 11.86z" fill="#ea4335"/><path d="M47.174 14.397a13.176 13.176 0 0 0 .692 3.872 17.945 17.945 0 0 0 2.016 4.263 12.478 12.478 0 0 0 3.25 3.462 7.832 7.832 0 0 0 4.395 1.469 7.482 7.482 0 0 0 3.967-1.04 9.581 9.581 0 0 0 3.043-2.943c1.705-2.52-1.072 5.05 1.122 5.05 1.677 0-.429-4.713.828-9.406a20.46 20.46 0 0 0 .688-5.28 12.29 12.29 0 0 0-1.226-5.636 9.024 9.024 0 0 0-2.889-3.346 8.469 8.469 0 0 0-3.369-1.406 4.788 4.788 0 0 0-2.667.187 1.116 1.116 0 0 0-.278.174.967.967 0 0 0-.174.2 1.067 1.067 0 0 0-.1.188c-.024.057-.039.108-.052.145a.161.161 0 0 0 .048.09 1 1 0 0 0 .109.1c.041.035.083.068.119.1s.064.049.076.062a.124.124 0 0 1-.02.14.477.477 0 0 1-.143.111 1.276 1.276 0 0 1-.162.074 2.154 2.154 0 0 1-.077.027l.05.013.05.013.05.013.05.013a2.979 2.979 0 0 1 .715.068 3.966 3.966 0 0 1 1.572.7c1.445 1.072-.291 6.711.84 6.711 1 0 .01-6.325.732-4.622a10.8 10.8 0 0 1 .715 4.224 15.124 15.124 0 0 1-.447 3.777 10.078 10.078 0 0 1-1.055 2.618 5.694 5.694 0 0 1-1.234 1.506 1.522 1.522 0 0 1-.984.441 1.877 1.877 0 0 1-.775-.408 5.463 5.463 0 0 1-1.166-1.275 8.226 8.226 0 0 1-1.062-2.33 12.823 12.823 0 0 1-.464-3.574 12.223 12.223 0 0 1 .223-2.367 11.011 11.011 0 0 1 .543-1.873 12.854 12.854 0 0 1 .675-1.449c.226-.42.443-.781.619-1.1a.562.562 0 0 0 .326-.181.822.822 0 0 0 .17-.327 1.366 1.366 0 0 0 .048-.375 1.239 1.239 0 0 0-.042-.323 2.246 2.246 0 0 0-.581-.935 5.869 5.869 0 0 0-1.241-1.006 4.806 4.806 0 0 0-1.6-.638 2.754 2.754 0 0 0-1.655.167 3.855 3.855 0 0 0-.9.97A15.4 15.4 0 0 0 49.1 5.921a19.1 19.1 0 0 0-1.339 3.688 19.617 19.617 0 0 0-.59 4.786z" fill="#fbbc05"/><path d="M93.743 22.84a9.628 9.628 0 0 0-.377-4.02c-.427-1.382-1.156-2.538-2.186-2.663a42.173 42.173 0 0 0-9 .327c-3.342.377-6.558.879-8.241 1.08.291.5.162 2.256.047 3.881s-.213 3.124.141 3.124c.583 0 .556-1.688.449-3.357a12.907 12.907 0 0 1-.034-3.246c.075 0 1.181-.163 2.638-.308a34.158 34.158 0 0 1 4.749-.195c-2.261.327-3.97.6-5.094.817s-1.665.364-1.589.44a7.156 7.156 0 0 1 1.621 4.338c.05 1.082-.064 1.73.641 1.73.583 0 .065-.461.018-.923s.378-.923 2.846-.923c3.015 0 3.722 1.123 3.8 2.247s-.461 2.247.053 2.247c.492 0 .683-.993 1.448-1.938s2.105-1.842 4.9-1.651a14.758 14.758 0 0 1-4.026 3.668 10.986 10.986 0 0 1-5.722 1.709 9.789 9.789 0 0 1-6.665-2.632 6.927 6.927 0 0 1-2.481-5.006 11.992 11.992 0 0 1 4.491-8.637 9.2 9.2 0 0 1 10.333-.911 2.763 2.763 0 0 0 1.111-.954 7.465 7.465 0 0 0 .88-1.628 11.942 11.942 0 0 0 .588-1.92 9.867 9.867 0 0 0 .235-1.83c.075-3.216-5.176-4.246-10.528-2.067s-10.8 7.569-11.131 17.193c-.176 5.5 1.479 9.538 4.083 12.142 4.871 4.871.884 17.7 4.411 17.7 3.734 0-3.178-13.81 5.024-13.81 12.157 0 6.832 9.215 9.561 9.215 1.936 0-.656-9.583 3-23.236z" fill="#4285f4"/><path d="M113.02 32.991l.452-.1-.653-.854s.3.151.251.05c-1.055-1.859-6.784-2.915-11.96-2.462.352-3.568 1.256-11.659 1.709-19.8.553-9.2-5.377-8.643-7.638-8.091-.5.151-.754.6-.7.8.754 4.271.6 19.347.553 28.543l-.3.151-.3.151a7.465 7.465 0 0 0-.314 5.088 2.524 2.524 0 0 0 3.379 1.847c9.653-2.587 2.367 13.347 7.18 13.347 4.266 0-6.543-17.472 8.047-15.407l.226.1.226.1s.452-1.658.6-2.06c.1-.3-.754-1.407-.754-1.407z" fill="#34a853"/><path d="M122.127 28.115c.2-1.256.5-3.317.754-5.98 4.267-1.024 2.539 3.52 3.618 3.52 1.043 0-1.334-4.928 1.96-4.928.7-.251 2.513-1.106 2.513-1.106l.176-.3.176-.3.9-.226.9-.226-.025-.251-.025-.251.829-.528.829-.528-.327-.025-.327-.025.779-.427.779-.427.2-1.206a3.843 3.843 0 0 0 .4-1.055 106.921 106.921 0 0 0-12.613.8c.1-1.206.2-2.412.251-3.719 0-.4.05-.8.05-1.206 7.43-1.182 4.866 3.691 6.464 3.691 1.209 0-1.176-5.248 3.336-5.248.3-.1 2.312-.955 2.312-.955l.05-.6 1.658-.854-1.005-.05s1.005-.7 1.156-.854a5.419 5.419 0 0 1 1.558-1.106 6.3 6.3 0 0 1 .05-1.307c-3.266-.05-14.774-.3-20.1.4a9.424 9.424 0 0 0-3.97.6c.9 3.216.653 18.342.653 26.935q-.339.113-.6.226a3.788 3.788 0 0 0-.452.226c-1.256.653-1.168 2.626-.572 4.341s1.7 3.172 2.481 2.8c10-4.875 5.576 15.571 7.512 15.571 4.214 0-2.452-18.289 6.716-21.061 6.018-1.82 1.921 6.739 4.916 6.739 2.21 0-1.89-8.536 2.113-8.536.653-.251.9-.955 1.759-1.608a10.229 10.229 0 0 1 2.211-1.206l-1.407-.151 1.91-.9.251-.6s.955-.9.955-1.256c-5.779-1.106-14.975.955-21.759 3.166z" fill="#ea4335"/></g></svg>