<svg xmlns="http://www.w3.org/2000/svg" width="552.395" height="203.369"><g stroke-width="2.646"><path d="M101.872 83.738c.676-3.97.193-10.168-1.448-15.494s-4.442-9.781-8.4-10.265a89.985 89.985 0 0 0-15.619-.351c-5.987.278-12.529.884-18.95 1.61s-12.722 1.574-18.226 2.336-10.212 1.44-13.446 1.828a1.327 1.327 0 0 0 .253.514 1.839 1.839 0 0 0 .471.406 4.055 4.055 0 0 0 .688.333c.266.1.567.2.905.3.145 0 1.28-.157 3.078-.384s4.261-.523 7.061-.8 5.939-.539 9.089-.693 6.313-.2 9.161-.057q-6.518.944-11.428 1.737t-8.151 1.41c-2.161.412-3.76.763-4.783 1.047s-1.47.5-1.325.648a95.096 95.096 0 0 0 4 4.83 61.022 61.022 0 0 0 4.689 4.757c1.666 1.5 3.735 2.493 5.269 4.031 5.085 5.1-4.147 15.006 2.818 15.006 3.765 0-2.15-13.718 2.922-12.355.169 0 .688.039 1.494.11s1.9.173 3.219.3c2.637.251 6.291-.054 10.109.971 13.891 3.733-1.774 15.341 6.139 15.341 5.609 0-3.625-15.066 6.36-14.188 4.231.372 8.359.711 11.883.953a56.523 56.523 0 0 1-6.75 7.487 55.46 55.46 0 0 1-8.724 6.651 46.514 46.514 0 0 1-10.353 4.763 38.788 38.788 0 0 1-11.639 1.822 37.118 37.118 0 0 1-14.373-2.884 38.062 38.062 0 0 1-11.241-7.26 33.477 33.477 0 0 1-7.221-9.547 20.293 20.293 0 0 1-2.315-9.747 43.21 43.21 0 0 1 4.91-18.087c2.978-5.8 7.476-14.8 13.162-18.093 12.087-7 9.528 4.936 12.811 4.936 4.1 0-2.062-8.078 4.342-9.8 6.541-1.758 14.071.324 21.748 4.246a8.045 8.045 0 0 0 2.231-1.422 14.231 14.231 0 0 0 2.039-2.255 28.8 28.8 0 0 0 3.383-6.273 46.119 46.119 0 0 0 2.26-7.4 38.131 38.131 0 0 0 .9-7.054c.145-6.2-4.828-10.289-12.408-11.781s-17.768-.384-28.052 3.816a66.9 66.9 0 0 0-28.631 22.372C7.817 42.988 2.264 57.453 1.636 75.997a74.663 74.663 0 0 0 3.881 27.547 52.473 52.473 0 0 0 11.811 19.249c4.949 5.072 11.174 7.951 16.953 11.3 17.635 10.21.111 39.831 9.533 39.831 10.15 0-1.371-29.69 9.773-36.142 20.028-11.6-1.961 51.835 10.541 51.835 10.275 0-6.557-46.291 10.31-56.056 15.419-8.927-2.665 23.544 8.649 23.544 11.336 0-.291-22 7.241-35.082 6.507-11.3 13.084-23.265 11.539-38.275z" fill="#4285f4" stroke="#00f"/><path d="M104.265 112.983c5.07-2.954 15.945-5.011 29.5-6.273a442.821 442.821 0 0 1 45.578-1.5 398.287 398.287 0 0 1 42.9 2.678c11.769 1.522 19.964 3.641 21.461 6.255.048.1.012.145-.069.164a.97.97 0 0 1-.341-.018c-.133-.024-.272-.06-.377-.091s-.178-.055-.178-.055l.628.775.628.775.628.775.628.775s-2.861-.557-7.656-1.322-11.524-1.74-19.261-2.575-16.482-1.531-25.309-1.74a164.136 164.136 0 0 0-25.8 1.183 193.032 193.032 0 0 1 27.249-.239c9.421.5 18.836 1.462 27.213 2.539s15.716 2.27 20.984 3.229a71.737 71.737 0 0 1 8.564 1.831c.241.339.495.726.736 1.132s.471.829.664 1.241a7.36 7.36 0 0 1 .447 1.168 2.1 2.1 0 0 1 .084.914c-.1.339-.278 1-.495 1.813-.109.4-.226.854-.346 1.324s-.242.962-.361 1.446l-.343 1.4-.289 1.18-.2.81-.075.3-.212-.018-.212-.007-.211.007-.21.021-.21.033-.209.045-.208.057-.208.069c-22.147 5.951-12.716 39.055-18.817 39.055-7.981 0 7.015-34.18-22.246-42.043-17.475-4.7-27.237.614-39.618.614-38.205 0-9.053 29.632-17.6 29.632-9.489 0 1.367-24.01-14.97-24.01-11.843 0-16.076 2.076-20.084 3.383-3.38 1.114-6.156.787-8.332-.526a11.75 11.75 0 0 1-4.729-6.446 25.227 25.227 0 0 1-1.144-9.641 29.719 29.719 0 0 1 2.423-10.113z" fill="#34a853" stroke="green"/><path d="M101.368 51.201c0 16.85 14.484 49.968 39.784 50.355a29.026 29.026 0 0 0 15.245-4.007c7.511-4.349 3.608 6.116 6.332 6.116 3.612 0 .084-9.635 5.364-17.458a56.956 56.956 0 0 0 7.495-16.788 77.243 77.243 0 0 0 2.643-20.348c0-8.861-1.823-16.027-4.71-21.722a34.752 34.752 0 0 0-11.1-12.9 32.5 32.5 0 0 0-12.948-5.417c-4.119-.708-7.788-.393-10.251.72a4.289 4.289 0 0 0-1.068.669 3.723 3.723 0 0 0-.67.76 4.118 4.118 0 0 0-.38.723c-.091.221-.151.415-.2.56a.622.622 0 0 0 .184.348 3.879 3.879 0 0 0 .419.4c.157.133.32.26.456.366s.244.191.293.239a.481.481 0 0 1-.078.539 1.832 1.832 0 0 1-.549.43 4.9 4.9 0 0 1-.622.285c-.175.067-.3.1-.3.1l.193.049.193.049.193.048.193.049a7.311 7.311 0 0 1 2.746.263c7.141 1.919-.979 23.248 2.815 23.248 4.478 0-.041-22.964 3.227-20.533a18.926 18.926 0 0 1 6.041 8.053c1.648 3.895 2.746 9.16 2.746 16.278a58.446 58.446 0 0 1-1.717 14.556 38.9 38.9 0 0 1-4.053 10.089 21.932 21.932 0 0 1-4.741 5.8c-1.512 1.241-2.864 1.8-3.781 1.7a7.206 7.206 0 0 1-2.978-1.574 21.032 21.032 0 0 1-4.481-4.914 31.744 31.744 0 0 1-4.083-8.982 49.551 49.551 0 0 1-1.783-13.775 47.239 47.239 0 0 1 .857-9.124 42.53 42.53 0 0 1 2.094-7.204c2.115-5.458-.909 4.741 2.074 4.741 4.086 0-1.194-3.724.54-10.214.651-2.864 1.683-3.122 2.358-4.332a2.159 2.159 0 0 0 1.252-.7 3.17 3.17 0 0 0 .655-1.262 5.279 5.279 0 0 0 .184-1.443 4.79 4.79 0 0 0-.16-1.244 8.661 8.661 0 0 0-2.233-3.6 22.568 22.568 0 0 0-4.768-3.877 18.439 18.439 0 0 0-6.144-2.46 10.557 10.557 0 0 0-6.361.645c-2.124.968-16.416 18.593-16.416 45.707z" fill="#ea4335" stroke="#a00"/><path d="M179.391 51.201a50.911 50.911 0 0 0 2.659 14.922 69.249 69.249 0 0 0 7.746 16.429 48.034 48.034 0 0 0 12.49 13.342 30.042 30.042 0 0 0 16.889 5.662 28.691 28.691 0 0 0 15.242-4.009 36.867 36.867 0 0 0 11.7-11.342c6.554-9.712-4.121 19.461 4.314 19.461 6.444 0-1.65-18.165 3.182-36.25a79.064 79.064 0 0 0 2.643-20.348c0-8.861-1.823-16.027-4.71-21.722a34.752 34.752 0 0 0-11.1-12.9 32.5 32.5 0 0 0-12.948-5.417c-4.119-.708-7.788-.393-10.251.72a4.289 4.289 0 0 0-1.068.669 3.723 3.723 0 0 0-.67.76 4.117 4.117 0 0 0-.38.723c-.091.221-.151.415-.2.56a.622.622 0 0 0 .184.348 3.881 3.881 0 0 0 .419.4c.157.133.32.26.456.366s.244.191.293.239a.481.481 0 0 1-.078.539 1.832 1.832 0 0 1-.549.43 4.9 4.9 0 0 1-.622.285c-.175.067-.3.1-.3.1l.193.049.193.049.193.048.193.049a11.418 11.418 0 0 1 2.746.263 15.222 15.222 0 0 1 6.041 2.714c5.554 4.132-1.117 25.864 3.227 25.864 3.85 0 .038-24.375 2.815-17.812 1.648 3.895 2.746 9.16 2.746 16.278a58.446 58.446 0 0 1-1.717 14.556 38.9 38.9 0 0 1-4.053 10.089 21.933 21.933 0 0 1-4.741 5.8c-1.512 1.241-2.864 1.8-3.781 1.7a7.208 7.208 0 0 1-2.978-1.574 21.033 21.033 0 0 1-4.481-4.914 31.744 31.744 0 0 1-4.083-8.982 49.551 49.551 0 0 1-1.783-13.775 47.237 47.237 0 0 1 .857-9.124 42.531 42.531 0 0 1 2.089-7.199 49.613 49.613 0 0 1 2.6-5.583c.869-1.619 1.7-3.011 2.378-4.221a2.159 2.159 0 0 0 1.252-.7 3.171 3.171 0 0 0 .655-1.262 5.28 5.28 0 0 0 .184-1.443 4.789 4.789 0 0 0-.16-1.244 8.661 8.661 0 0 0-2.233-3.6 22.572 22.572 0 0 0-4.768-3.877 18.44 18.44 0 0 0-6.149-2.47 10.558 10.558 0 0 0-6.361.645 14.844 14.844 0 0 0-3.461 3.737 59.381 59.381 0 0 0-5.543 9.312 73.743 73.743 0 0 0-5.145 14.216 75.809 75.809 0 0 0-2.266 18.444h0z" fill="#fbbc05" stroke="#ff0"/><path d="M358.368 83.738c.676-3.97.193-10.168-1.448-15.494s-4.442-9.781-8.4-10.265c-8.4-1.162-21.727-.194-34.57 1.259s-25.2 3.389-31.673 4.164c1.12 1.946.621 8.7.182 14.959s-.818 12.04.542 12.04c2.239 0 2.136-6.506 1.725-12.94s-.676-12.656-.131-12.509c.29 0 4.538-.629 10.139-1.186a130.915 130.915 0 0 1 18.25-.75c-8.691 1.259-15.257 2.324-19.578 3.147s-6.4 1.4-6.108 1.695a27.628 27.628 0 0 1 6.229 16.717c.19 4.171-.247 6.666 2.462 6.666 2.239 0 .248-1.779.069-3.557s1.453-3.557 10.939-3.557c11.587 0 14.3 4.329 14.619 8.659s-1.773 8.659.2 8.659c1.892 0 2.623-3.826 5.563-7.468s8.09-7.1 18.819-6.363a56.778 56.778 0 0 1-15.474 14.138 42.133 42.133 0 0 1-21.992 6.585 37.566 37.566 0 0 1-25.613-10.144c-6.252-5.834-9.825-13.194-9.536-19.295.386-12.008 6.953-25.129 17.261-33.288s24.358-11.354 39.712-3.51a10.628 10.628 0 0 0 4.27-3.677 28.794 28.794 0 0 0 3.383-6.273 46.113 46.113 0 0 0 2.26-7.4 38.129 38.129 0 0 0 .9-7.054c.29-12.4-19.892-16.365-40.46-7.965s-41.522 29.172-42.777 66.261c-.676 21.207 5.685 36.761 15.692 46.8 18.721 18.774 3.4 68.208 16.953 68.208 14.349 0-12.215-53.222 19.307-53.222 46.723 0 26.258 35.516 36.742 35.516 7.439 0-2.52-36.933 11.539-89.551z" fill="#4285f4" stroke="#00f"/><path d="M432.446 122.86l1.738-.387-2.506-3.293s1.159.581.966.194c-4.056-7.166-26.072-11.233-45.964-9.49 1.352-13.751 4.828-44.932 6.566-76.308C395.37-1.866 372.582.264 363.891 2.394c-1.931.581-2.9 2.324-2.7 3.1 2.9 16.462 2.318 74.564 2.124 110.006l-1.159.581-1.159.581c-2.7 6.2-3.138 13.944-1.207 19.609s6.228 9.248 12.988 7.117c37.1-9.969 9.1 51.44 27.593 51.44 16.393 0-25.147-67.338 30.924-59.381l.869.387.869.387s1.738-6.391 2.318-7.941c.386-1.162-2.9-5.423-2.9-5.423z" fill="#34a853" stroke="green"/><path d="M467.448 104.074c.772-4.842 1.931-12.782 2.9-23.047 16.4-3.947 9.759 13.568 13.905 13.568 4.008 0-5.128-18.991 7.532-18.991 2.7-.968 9.656-4.261 9.656-4.261l.676-1.162.676-1.162 3.476-.872 3.476-.872-.1-.968-.1-.968 3.187-2.034 3.187-2.034-1.255-.1-1.255-.1 2.993-1.646 2.993-1.646.773-4.648s1.545-2.905 1.545-4.067c-10.429-.194-31.48.968-48.475 3.1.386-4.648.773-9.3.966-14.332 0-1.549.193-3.1.193-4.648 28.555-4.556 18.7 14.224 24.841 14.224 4.646 0-4.521-20.228 12.819-20.228 1.159-.387 8.884-3.68 8.884-3.68l.193-2.324 6.373-3.292-3.862-.194s3.862-2.711 4.442-3.292a20.819 20.819 0 0 1 5.987-4.261 24.359 24.359 0 0 1 .193-5.036c-12.553-.194-56.779-1.162-77.25 1.549-7.725-.775-15.257 2.324-15.257 2.324 3.476 12.4 2.511 70.691 2.511 103.809q-1.3.436-2.318.872a14.529 14.529 0 0 0-1.738.872c-4.828 2.518-4.49 10.119-2.2 16.729s6.542 12.226 9.536 10.773c38.424-18.787 21.431 60.012 28.869 60.012 16.194 0-9.422-70.488 25.81-81.171 23.128-7.013 7.384 25.973 18.893 25.973 8.492 0-7.262-32.9 8.12-32.9 2.511-.968 3.476-3.68 6.759-6.2a39.266 39.266 0 0 1 8.5-4.648l-5.408-.581 7.339-3.486.966-2.324s3.669-3.486 3.669-4.842c-22.209-4.261-57.552 3.68-83.624 12.2z" fill="#ea4335" stroke="#a00"/></g><g stroke="#f9f9f9" stroke-width=".529"><path d="M101.342 84.108c.671-3.942.192-10.094-1.438-15.382s-4.409-9.71-8.339-10.19a89.318 89.318 0 0 0-15.5-.348c-5.943.276-12.437.877-18.812 1.6S44.624 61.35 39.16 62.107s-10.137 1.43-13.348 1.815a1.318 1.318 0 0 0 .252.511 1.827 1.827 0 0 0 .467.4 4.016 4.016 0 0 0 .683.33c.264.1.563.2.9.295.144 0 1.27-.156 3.055-.382s4.23-.52 7.009-.8 5.9-.535 9.022-.688 6.267-.2 9.094-.057q-6.47.937-11.344 1.724t-8.091 1.4c-2.145.409-3.732.757-4.748 1.039s-1.459.5-1.315.643a96.626 96.626 0 0 0 3.972 4.795 60.576 60.576 0 0 0 4.655 4.723c1.654 1.49 3.708 2.475 5.23 4 5.047 5.062-4.116 14.9 2.8 14.9 3.737 0-2.134-13.618 2.9-12.266.168 0 .683.039 1.484.109s1.886.172 3.2.3c2.618.249 6.245-.054 10.035.964 13.789 3.706-1.761 15.23 6.094 15.23 5.568 0-3.6-14.957 6.314-14.085 4.2.369 8.3.706 11.8.946a56.1 56.1 0 0 1-6.7 7.433 55.048 55.048 0 0 1-8.66 6.6 46.169 46.169 0 0 1-10.295 4.736 38.5 38.5 0 0 1-11.554 1.809 36.843 36.843 0 0 1-14.267-2.863 37.783 37.783 0 0 1-11.158-7.207 33.234 33.234 0 0 1-7.168-9.479 20.148 20.148 0 0 1-2.3-9.677 42.9 42.9 0 0 1 4.874-17.957c2.957-5.759 7.421-14.693 13.066-17.962 12-6.947 9.458 4.9 12.717 4.9 4.065 0-2.047-8.02 4.31-9.728 6.493-1.745 13.968.321 21.588 4.215a7.984 7.984 0 0 0 2.215-1.412 14.126 14.126 0 0 0 2.024-2.239 28.589 28.589 0 0 0 3.358-6.228 45.781 45.781 0 0 0 2.244-7.345 37.857 37.857 0 0 0 .9-7c.144-6.153-4.793-10.214-12.317-11.7s-17.637-.382-27.846 3.788A66.411 66.411 0 0 0 15.89 32.848C7.982 43.648 2.47 58.009 1.847 76.419a74.13 74.13 0 0 0 3.852 27.348 52.1 52.1 0 0 0 11.724 19.11c4.913 5.035 11.092 7.893 16.829 11.215 17.505 10.136.11 39.543 9.463 39.543 10.075 0-1.36-29.475 9.7-35.88 19.881-11.512-1.947 51.46 10.464 51.46 10.2 0-6.508-45.956 10.235-55.651 15.306-8.863-2.645 23.373 8.586 23.373 11.253 0-.289-21.84 7.188-34.829 6.459-11.22 12.988-23.1 11.455-38z" fill="#4285f4"/><path d="M103.717 113.14c5.032-2.932 15.828-4.975 29.284-6.228a439.519 439.519 0 0 1 45.244-1.487 395.314 395.314 0 0 1 42.584 2.659c11.682 1.511 19.818 3.614 21.3 6.21.048.1.012.144-.069.162a.961.961 0 0 1-.338-.018 3.975 3.975 0 0 1-.551-.144l.623.769.623.769.623.769.623.769s-2.84-.553-7.6-1.313-11.44-1.728-19.12-2.557-16.361-1.52-25.123-1.727a162.927 162.927 0 0 0-25.608 1.175 191.608 191.608 0 0 1 27.049-.237c9.352.5 18.7 1.451 27.013 2.521s15.6 2.253 20.831 3.206a71.19 71.19 0 0 1 8.5 1.818c.24.336.491.721.731 1.124s.467.823.659 1.232a7.307 7.307 0 0 1 .443 1.16 2.089 2.089 0 0 1 .084.907c-.1.336-.276 1-.491 1.8-.108.4-.224.848-.343 1.315s-.24.955-.359 1.435-.234.952-.34 1.387-.2.834-.287 1.171-.151.613-.2.8l-.074.3-.211-.018-.21-.006-.209.006-.209.021-.208.032-.207.044-.207.057-.206.068c-21.984 5.908-12.623 38.772-18.679 38.772-7.923 0 6.963-33.933-22.083-41.739-17.347-4.662-27.038.61-39.328.61-37.925 0-8.986 29.418-17.468 29.418-9.42 0 1.357-23.836-14.86-23.836-11.757 0-15.959 2.061-19.937 3.359-3.355 1.106-6.111.781-8.271-.523a11.664 11.664 0 0 1-4.694-6.4 25.047 25.047 0 0 1-1.135-9.572 29.507 29.507 0 0 1 2.405-10.04z" fill="#34a853"/><path d="M100.842 51.805c0 16.728 14.378 49.606 39.492 49.991a28.814 28.814 0 0 0 15.133-3.978c7.456-4.317 3.582 6.071 6.286 6.071 3.585 0 .084-9.565 5.324-17.331a56.547 56.547 0 0 0 7.441-16.668 76.691 76.691 0 0 0 2.624-20.2c0-8.8-1.809-15.911-4.676-21.565a34.5 34.5 0 0 0-11.02-12.8 32.258 32.258 0 0 0-12.853-5.379c-4.089-.7-7.731-.391-10.176.715a4.256 4.256 0 0 0-1.06.664 3.7 3.7 0 0 0-.665.754 4.09 4.09 0 0 0-.377.718c-.09.219-.15.412-.2.556a.618.618 0 0 0 .183.346 3.838 3.838 0 0 0 .416.4c.156.132.318.258.452.364s.243.189.291.237a.477.477 0 0 1-.078.535 1.819 1.819 0 0 1-.545.427 4.86 4.86 0 0 1-.617.283c-.174.066-.294.1-.294.1l.192.048.192.048.192.048.192.048a7.256 7.256 0 0 1 2.726.261c7.088 1.9-.972 23.08 2.794 23.08 4.445 0-.041-22.8 3.2-20.385a18.789 18.789 0 0 1 6 7.994c1.636 3.866 2.726 9.094 2.726 16.16a58.029 58.029 0 0 1-1.7 14.45 38.626 38.626 0 0 1-4.023 10.016 21.773 21.773 0 0 1-4.706 5.762c-1.5 1.232-2.843 1.785-3.753 1.688a7.153 7.153 0 0 1-2.957-1.562 20.881 20.881 0 0 1-4.448-4.879 31.516 31.516 0 0 1-4.053-8.917 49.2 49.2 0 0 1-1.77-13.675 46.9 46.9 0 0 1 .851-9.058 42.225 42.225 0 0 1 2.073-7.165c2.1-5.418-.9 4.707 2.059 4.707 4.056 0-1.185-3.7.536-10.14.646-2.843 1.67-3.1 2.341-4.3a2.142 2.142 0 0 0 1.243-.694 3.147 3.147 0 0 0 .65-1.253 5.241 5.241 0 0 0 .183-1.433 4.757 4.757 0 0 0-.159-1.235 8.6 8.6 0 0 0-2.217-3.578 22.405 22.405 0 0 0-4.733-3.849 18.305 18.305 0 0 0-6.1-2.442 10.479 10.479 0 0 0-6.314.64c-2.109.961-16.3 18.458-16.3 45.376z" fill="#ea4335"/><path d="M178.294 51.805a50.548 50.548 0 0 0 2.639 14.814 68.752 68.752 0 0 0 7.689 16.31 47.687 47.687 0 0 0 12.4 13.246 29.821 29.821 0 0 0 16.766 5.621 28.481 28.481 0 0 0 15.133-3.978 36.6 36.6 0 0 0 11.611-11.26c6.506-9.642-4.091 19.321 4.282 19.321 6.4 0-1.638-18.034 3.159-35.988a78.5 78.5 0 0 0 2.624-20.2c0-8.8-1.809-15.911-4.676-21.565a34.5 34.5 0 0 0-11.027-12.805 32.258 32.258 0 0 0-12.85-5.375c-4.089-.7-7.731-.391-10.176.715a4.259 4.259 0 0 0-1.06.664 3.7 3.7 0 0 0-.665.754 4.088 4.088 0 0 0-.377.718c-.09.219-.15.412-.2.556a.618.618 0 0 0 .183.345 3.838 3.838 0 0 0 .416.4c.156.132.318.258.452.364s.243.189.291.237a.477.477 0 0 1-.078.535 1.82 1.82 0 0 1-.545.427 4.867 4.867 0 0 1-.617.282c-.174.066-.294.1-.294.1l.192.048.192.048.192.048.192.048a11.337 11.337 0 0 1 2.726.261 15.11 15.11 0 0 1 6 2.695c5.513 4.1-1.109 25.677 3.2 25.677 3.822 0 .038-24.2 2.794-17.683 1.636 3.867 2.726 9.094 2.726 16.16a58.03 58.03 0 0 1-1.7 14.451 38.627 38.627 0 0 1-4.023 10.016 21.773 21.773 0 0 1-4.706 5.762c-1.5 1.232-2.843 1.784-3.753 1.688a7.154 7.154 0 0 1-2.957-1.562 20.878 20.878 0 0 1-4.448-4.879 31.517 31.517 0 0 1-4.053-8.917 49.2 49.2 0 0 1-1.77-13.675 46.9 46.9 0 0 1 .851-9.058 42.221 42.221 0 0 1 2.073-7.165 49.25 49.25 0 0 1 2.576-5.543c.863-1.607 1.689-2.989 2.36-4.191a2.142 2.142 0 0 0 1.243-.694 3.148 3.148 0 0 0 .65-1.253 5.241 5.241 0 0 0 .183-1.433 4.756 4.756 0 0 0-.159-1.235 8.6 8.6 0 0 0-2.217-3.578 22.4 22.4 0 0 0-4.733-3.848 18.3 18.3 0 0 0-6.1-2.443 10.479 10.479 0 0 0-6.314.64 14.734 14.734 0 0 0-3.436 3.71 58.953 58.953 0 0 0-5.5 9.244 73.215 73.215 0 0 0-5.107 14.111 75.266 75.266 0 0 0-2.254 18.313h0z" fill="#fbbc05"/><path d="M355.958 84.107c.671-3.942.192-10.094-1.438-15.382s-4.409-9.71-8.339-10.19c-8.339-1.154-21.568-.192-34.316 1.25s-25.018 3.365-31.441 4.134c1.112 1.932.617 8.633.181 14.85s-.813 11.953.54 11.953c2.222 0 2.121-6.459 1.712-12.846s-.671-12.564-.131-12.419c.288 0 4.505-.625 10.065-1.178a129.94 129.94 0 0 1 18.117-.745c-8.627 1.25-15.145 2.307-19.435 3.124s-6.35 1.394-6.063 1.682a27.43 27.43 0 0 1 6.183 16.6c.189 4.14-.245 6.618 2.444 6.618 2.223 0 .247-1.766.068-3.531s1.442-3.531 10.859-3.531c11.5 0 14.2 4.3 14.512 8.6s-1.76 8.6.2 8.6c1.878 0 2.6-3.8 5.523-7.414s8.031-7.049 18.681-6.317a56.364 56.364 0 0 1-15.361 14.036 41.822 41.822 0 0 1-21.831 6.537 37.289 37.289 0 0 1-25.426-10.07c-6.207-5.792-9.753-13.1-9.466-19.155.383-11.921 6.9-24.947 17.134-33.047s24.18-11.272 39.421-3.485a10.551 10.551 0 0 0 4.239-3.65 28.59 28.59 0 0 0 3.358-6.228 45.781 45.781 0 0 0 2.244-7.345 37.856 37.856 0 0 0 .9-7c.288-12.305-19.746-16.247-40.163-7.907s-41.218 28.961-42.464 65.781c-.671 21.054 5.643 36.5 15.577 46.458 18.583 18.638 3.372 67.715 16.829 67.715 14.244 0-12.126-52.838 19.165-52.838 46.38 0 26.065 35.26 36.473 35.26 7.384 0-2.5-36.666 11.455-88.9z" fill="#4285f4"/><path d="M429.493 122.947l1.725-.385-2.491-3.268s1.15.577.959.192c-4.026-7.114-25.881-11.152-45.627-9.421 1.342-13.651 4.793-44.607 6.518-75.756 2.109-35.186-20.513-33.071-29.14-30.956-1.917.577-2.876 2.307-2.684 3.076 2.876 16.343 2.3 74.025 2.109 109.212l-1.15.577-1.15.577c-2.684 6.153-3.115 13.844-1.2 19.468s6.183 9.181 12.893 7.066c36.827-9.9 9.031 51.068 27.391 51.068 16.273 0-24.962-66.851 30.7-58.951l.863.385.863.385s1.725-6.345 2.3-7.883c.383-1.154-2.876-5.384-2.876-5.384z" fill="#34a853"/><path d="M464.238 104.296c.767-4.807 1.917-12.69 2.876-22.88 16.279-3.919 9.688 13.47 13.8 13.47 3.979 0-5.09-18.853 7.477-18.853 2.684-.961 9.586-4.23 9.586-4.23l.671-1.154.671-1.154 3.451-.865 3.451-.865-.1-.961-.1-.961 3.163-2.019 3.163-2.019-1.246-.1-1.246-.1 2.971-1.634 2.972-1.634.767-4.615s1.534-2.884 1.534-4.038c-10.352-.192-31.249.961-48.119 3.076.383-4.615.767-9.229.959-14.228 0-1.538.192-3.076.192-4.615 28.345-4.523 18.565 14.121 24.659 14.121 4.612 0-4.487-20.082 12.725-20.082 1.15-.385 8.819-3.653 8.819-3.653l.192-2.307 6.326-3.269-3.834-.192s3.834-2.692 4.409-3.269a20.668 20.668 0 0 1 5.943-4.23 24.187 24.187 0 0 1 .192-5c-12.461-.192-56.363-1.154-76.684 1.538-7.668-.769-15.145 2.307-15.145 2.307 3.451 12.305 2.492 70.18 2.492 103.058q-1.294.433-2.3.865a14.415 14.415 0 0 0-1.725.865c-4.793 2.5-4.457 10.046-2.181 16.608s6.494 12.137 9.466 10.7c38.143-18.652 21.274 59.578 28.658 59.578 16.075 0-9.353-69.978 25.62-80.584 22.958-6.962 7.33 25.785 18.755 25.785 8.43 0-7.208-32.659 8.061-32.659 2.492-.961 3.451-3.653 6.71-6.153a38.982 38.982 0 0 1 8.435-4.615l-5.368-.577 7.285-3.461.959-2.307s3.642-3.461 3.642-4.807c-22.047-4.23-57.13 3.653-83.011 12.113z" fill="#ea4335"/></g><path d="M100.283 84.242c.676-3.97.193-10.168-1.448-15.494s-4.442-9.781-8.4-10.265a89.987 89.987 0 0 0-15.619-.351c-5.987.278-12.529.884-18.95 1.61s-12.722 1.574-18.226 2.336-10.212 1.44-13.446 1.828a1.326 1.326 0 0 0 .253.514 1.842 1.842 0 0 0 .471.406 4.05 4.05 0 0 0 .688.333c.265.1.567.2.905.3.145 0 1.28-.158 3.078-.384s4.261-.523 7.061-.8 5.939-.539 9.089-.693 6.313-.2 9.161-.058q-6.518.944-11.428 1.737t-8.151 1.41c-2.161.412-3.76.763-4.783 1.047s-1.47.5-1.325.648a95.096 95.096 0 0 0 4 4.83 61.033 61.033 0 0 0 4.689 4.757c1.666 1.5 3.735 2.493 5.269 4.031 5.085 5.1-4.147 15.006 2.818 15.006 3.765 0-2.15-13.718 2.922-12.355.169 0 .688.039 1.494.11s1.9.173 3.219.3c2.637.251 6.291-.054 10.109.971 13.891 3.733-1.774 15.341 6.139 15.341 5.609 0-3.625-15.066 6.36-14.188 4.231.372 8.359.711 11.883.953a56.517 56.517 0 0 1-6.75 7.487 55.456 55.456 0 0 1-8.724 6.651 46.51 46.51 0 0 1-10.358 4.756 38.787 38.787 0 0 1-11.639 1.822 37.118 37.118 0 0 1-14.373-2.884 38.061 38.061 0 0 1-11.241-7.26 33.478 33.478 0 0 1-7.221-9.548 20.293 20.293 0 0 1-2.315-9.747 43.21 43.21 0 0 1 4.91-18.087c2.978-5.8 7.476-14.8 13.162-18.093 12.087-7 9.528 4.935 12.811 4.935 4.1 0-2.062-8.078 4.342-9.8 6.541-1.758 14.071.324 21.748 4.246a8.042 8.042 0 0 0 2.231-1.422 14.226 14.226 0 0 0 2.039-2.255 28.8 28.8 0 0 0 3.383-6.273 46.112 46.112 0 0 0 2.26-7.4 38.128 38.128 0 0 0 .9-7.054c.145-6.2-4.828-10.289-12.408-11.781s-17.768-.384-28.052 3.816a66.9 66.9 0 0 0-28.631 22.372C6.223 43.482.67 57.947.042 76.491a74.663 74.663 0 0 0 3.881 27.547 52.473 52.473 0 0 0 11.811 19.249c4.949 5.072 11.174 7.951 16.953 11.3 17.635 10.21.111 39.831 9.533 39.831 10.15 0-1.371-29.69 9.773-36.142 20.028-11.6-1.961 51.835 10.541 51.835 10.275 0-6.557-46.291 10.31-56.056 15.419-8.927-2.665 23.544 8.649 23.544 11.336 0-.291-22 7.241-35.082 6.507-11.3 13.084-23.265 11.539-38.275z" fill="#4285f4"/><path d="M102.674 113.485c5.07-2.953 15.945-5.011 29.5-6.273a442.821 442.821 0 0 1 45.578-1.5 398.287 398.287 0 0 1 42.9 2.678c11.769 1.522 19.964 3.64 21.461 6.255.048.1.012.145-.069.164a.969.969 0 0 1-.341-.018c-.133-.024-.272-.061-.377-.091s-.178-.055-.178-.055l.628.775.628.775.628.775.628.775s-2.861-.557-7.656-1.322-11.524-1.74-19.261-2.575-16.486-1.53-25.312-1.739a164.129 164.129 0 0 0-25.8 1.183 193.033 193.033 0 0 1 27.251-.236c9.421.5 18.836 1.462 27.213 2.539s15.716 2.27 20.984 3.229a71.738 71.738 0 0 1 8.564 1.831c.241.339.495.726.736 1.132s.471.829.664 1.241a7.359 7.359 0 0 1 .447 1.168 2.1 2.1 0 0 1 .084.914c-.1.339-.278 1-.495 1.813-.109.4-.226.854-.346 1.325s-.242.962-.361 1.446l-.343 1.4-.289 1.18-.2.81-.075.3-.212-.018-.212-.007-.211.007-.21.021-.21.033-.209.045-.208.057-.208.069c-22.147 5.951-12.716 39.055-18.817 39.055-7.981 0 7.015-34.18-22.246-42.043-17.475-4.7-27.237.614-39.618.614-38.205 0-9.053 29.632-17.6 29.632-9.489 0 1.367-24.01-14.97-24.01-11.843 0-16.076 2.076-20.084 3.383-3.38 1.114-6.156.787-8.332-.527a11.75 11.75 0 0 1-4.729-6.446 25.227 25.227 0 0 1-1.144-9.641 29.719 29.719 0 0 1 2.423-10.113z" fill="#34a853"/><path d="M99.777 51.704c0 16.85 14.484 49.968 39.784 50.355a29.026 29.026 0 0 0 15.245-4.007c7.511-4.349 3.608 6.116 6.332 6.116 3.612 0 .084-9.635 5.364-17.458a56.956 56.956 0 0 0 7.5-16.789 77.243 77.243 0 0 0 2.643-20.348c0-8.861-1.823-16.027-4.71-21.722a34.751 34.751 0 0 0-11.1-12.9 32.5 32.5 0 0 0-12.948-5.417c-4.119-.708-7.788-.393-10.251.72a4.289 4.289 0 0 0-1.068.669 3.726 3.726 0 0 0-.67.76 4.119 4.119 0 0 0-.38.723c-.091.221-.151.415-.2.56a.622.622 0 0 0 .184.348 3.864 3.864 0 0 0 .419.4c.157.133.32.26.456.366s.244.191.293.239a.481.481 0 0 1-.078.539 1.834 1.834 0 0 1-.549.43 4.908 4.908 0 0 1-.622.285c-.175.067-.3.1-.3.1l.193.048.193.049.193.049.193.049a7.311 7.311 0 0 1 2.746.263c7.141 1.919-.979 23.248 2.815 23.248 4.478 0-.041-22.964 3.227-20.534a18.926 18.926 0 0 1 6.041 8.053c1.648 3.895 2.746 9.16 2.746 16.278a58.445 58.445 0 0 1-1.717 14.556 38.9 38.9 0 0 1-4.053 10.089 21.933 21.933 0 0 1-4.741 5.8c-1.512 1.241-2.864 1.8-3.781 1.7a7.207 7.207 0 0 1-2.978-1.574 21.032 21.032 0 0 1-4.481-4.914 31.743 31.743 0 0 1-4.083-8.982 49.551 49.551 0 0 1-1.785-13.766 47.237 47.237 0 0 1 .857-9.124 42.529 42.529 0 0 1 2.088-7.217c2.115-5.458-.909 4.741 2.074 4.741 4.086 0-1.193-3.724.54-10.214.651-2.864 1.683-3.122 2.358-4.332a2.158 2.158 0 0 0 1.252-.7 3.171 3.171 0 0 0 .655-1.262 5.279 5.279 0 0 0 .184-1.443 4.79 4.79 0 0 0-.16-1.244 8.661 8.661 0 0 0-2.233-3.6 22.567 22.567 0 0 0-4.768-3.876 18.44 18.44 0 0 0-6.144-2.46 10.557 10.557 0 0 0-6.361.645c-2.124.968-16.416 18.593-16.416 45.707z" fill="#ea4335"/><path d="M177.8 51.704a50.912 50.912 0 0 0 2.659 14.922 69.251 69.251 0 0 0 7.746 16.429 48.035 48.035 0 0 0 12.49 13.342 30.042 30.042 0 0 0 16.889 5.662 28.691 28.691 0 0 0 15.245-4.007 36.867 36.867 0 0 0 11.7-11.342c6.554-9.712-4.121 19.461 4.314 19.461 6.444 0-1.65-18.165 3.182-36.25a79.064 79.064 0 0 0 2.643-20.348c0-8.861-1.823-16.027-4.71-21.722a34.752 34.752 0 0 0-11.1-12.9 32.5 32.5 0 0 0-12.948-5.417c-4.119-.708-7.788-.393-10.251.72a4.289 4.289 0 0 0-1.068.669 3.725 3.725 0 0 0-.67.76 4.116 4.116 0 0 0-.38.723c-.091.221-.151.415-.2.56a.623.623 0 0 0 .184.348 3.866 3.866 0 0 0 .419.4c.157.133.32.26.456.366s.244.191.293.239a.481.481 0 0 1-.078.539 1.834 1.834 0 0 1-.549.43 4.9 4.9 0 0 1-.622.285c-.175.067-.3.1-.3.1l.193.048.193.049.193.049.193.048a11.42 11.42 0 0 1 2.746.263 15.222 15.222 0 0 1 6.041 2.714c5.554 4.132-1.117 25.864 3.227 25.864 3.85 0 .038-24.375 2.815-17.812 1.648 3.895 2.746 9.16 2.746 16.278a58.446 58.446 0 0 1-1.717 14.556 38.905 38.905 0 0 1-4.053 10.089 21.932 21.932 0 0 1-4.741 5.8c-1.512 1.241-2.864 1.8-3.781 1.7a7.207 7.207 0 0 1-2.978-1.574 21.033 21.033 0 0 1-4.481-4.914 31.744 31.744 0 0 1-4.083-8.982 49.551 49.551 0 0 1-1.785-13.764 47.237 47.237 0 0 1 .857-9.124 42.528 42.528 0 0 1 2.088-7.217 49.613 49.613 0 0 1 2.6-5.583c.869-1.619 1.7-3.011 2.378-4.221a2.158 2.158 0 0 0 1.252-.7 3.171 3.171 0 0 0 .655-1.262 5.279 5.279 0 0 0 .184-1.443 4.79 4.79 0 0 0-.16-1.244 8.661 8.661 0 0 0-2.233-3.6 22.567 22.567 0 0 0-4.768-3.876 18.44 18.44 0 0 0-6.144-2.46A10.557 10.557 0 0 0 194.22 6a14.841 14.841 0 0 0-3.461 3.737 59.381 59.381 0 0 0-5.543 9.311 73.743 73.743 0 0 0-5.145 14.214 75.809 75.809 0 0 0-2.266 18.444z" fill="#fbbc05"/><path d="M356.777 84.242c.676-3.97.193-10.168-1.448-15.494s-4.442-9.781-8.4-10.265c-8.4-1.162-21.727-.194-34.57 1.259s-25.2 3.389-31.673 4.164c1.12 1.946.621 8.7.182 14.959s-.818 12.04.542 12.04c2.239 0 2.136-6.506 1.725-12.94s-.676-12.655-.131-12.509c.29 0 4.538-.629 10.139-1.186a130.91 130.91 0 0 1 18.25-.751c-8.691 1.259-15.257 2.324-19.578 3.147s-6.4 1.4-6.108 1.695a27.629 27.629 0 0 1 6.229 16.717c.19 4.171-.247 6.666 2.462 6.666 2.239 0 .248-1.779.069-3.557s1.453-3.557 10.939-3.557c11.587 0 14.3 4.329 14.619 8.659s-1.773 8.659.2 8.659c1.892 0 2.623-3.826 5.563-7.468s8.09-7.1 18.819-6.363a56.777 56.777 0 0 1-15.471 14.139 42.133 42.133 0 0 1-21.992 6.585 37.566 37.566 0 0 1-25.613-10.144c-6.252-5.834-9.825-13.194-9.536-19.295.386-12.008 6.953-25.129 17.261-33.288s24.358-11.354 39.712-3.51a10.629 10.629 0 0 0 4.27-3.677 28.8 28.8 0 0 0 3.383-6.273 46.109 46.109 0 0 0 2.26-7.4 38.131 38.131 0 0 0 .9-7.054c.29-12.4-19.892-16.365-40.46-7.965s-41.522 29.172-42.777 66.261c-.676 21.207 5.685 36.761 15.692 46.8 18.721 18.774 3.4 68.208 16.953 68.208 14.349 0-12.215-53.222 19.307-53.222 46.723 0 26.258 35.516 36.742 35.516 7.439 0-2.52-36.933 11.539-89.551z" fill="#4285f4"/><path d="M430.85 123.364l1.738-.387-2.511-3.292s1.159.581.966.194c-4.056-7.166-26.072-11.233-45.964-9.49 1.352-13.751 4.828-44.932 6.566-76.308C393.769-1.361 370.981.769 362.29 2.899c-1.931.581-2.9 2.324-2.7 3.1 2.9 16.462 2.318 74.564 2.124 110.006l-1.159.581-1.159.581c-2.7 6.2-3.138 13.945-1.207 19.609s6.228 9.248 12.988 7.118c37.1-9.969 9.1 51.44 27.593 51.44 16.393 0-25.147-67.338 30.924-59.381l.869.387.869.387s1.738-6.391 2.318-7.941c.386-1.162-2.9-5.423-2.9-5.423z" fill="#34a853"/><path d="M465.855 104.577c.773-4.842 1.931-12.783 2.9-23.047 16.4-3.947 9.759 13.568 13.905 13.568 4.008 0-5.128-18.991 7.532-18.991 2.7-.968 9.656-4.261 9.656-4.261l.676-1.162.676-1.162 3.476-.872 3.476-.872-.1-.968-.1-.968 3.187-2.034 3.187-2.034-1.255-.1-1.255-.1 2.993-1.646 2.993-1.646.773-4.648s1.545-2.905 1.545-4.067c-10.429-.194-31.48.968-48.475 3.1.386-4.648.772-9.3.966-14.332 0-1.549.193-3.1.193-4.648 28.555-4.556 18.7 14.224 24.841 14.224 4.646 0-4.521-20.228 12.819-20.228 1.159-.387 8.884-3.68 8.884-3.68l.193-2.324 6.373-3.292-3.863-.194s3.863-2.711 4.442-3.292a20.821 20.821 0 0 1 5.987-4.261 24.356 24.356 0 0 1 .193-5.036c-12.553-.194-56.779-1.162-77.251 1.549-7.725-.775-15.257 2.324-15.257 2.324 3.476 12.4 2.511 70.691 2.511 103.809q-1.3.436-2.318.872a14.526 14.526 0 0 0-1.738.872c-4.828 2.518-4.49 10.12-2.2 16.729s6.542 12.226 9.536 10.773c38.424-18.787 21.431 60.012 28.869 60.012 16.194 0-9.422-70.488 25.81-81.171 23.128-7.013 7.384 25.973 18.893 25.973 8.492 0-7.262-32.9 8.12-32.9 2.511-.968 3.476-3.68 6.759-6.2a39.271 39.271 0 0 1 8.5-4.648l-5.408-.581 7.339-3.486.966-2.324s3.669-3.486 3.669-4.842c-22.209-4.261-57.552 3.68-83.624 12.2z" fill="#ea4335"/></svg>